<svg xmlns="http://www.w3.org/2000/svg" xmlns:xlink="http://www.w3.org/1999/xlink" width="179" height="167" viewBox="0 0 179 167">
  <defs>
    <clipPath id="clip-path">
      <rect id="사각형_469" data-name="사각형 469" width="179" height="167" transform="translate(245.069 626.672)" fill="#fff"/>
    </clipPath>
    <clipPath id="clip-path-2">
      <rect id="사각형_426" data-name="사각형 426" width="181.692" height="162.289" fill="#f6f2ea"/>
    </clipPath>
  </defs>
  <g id="마스크_그룹_1" data-name="마스크 그룹 1" transform="translate(-245.069 -626.672)" clip-path="url(#clip-path)">
    <g id="ai" transform="translate(261.645 645.937)" opacity="0.5">
      <path id="패스_44" data-name="패스 44" d="M51.537,0V14.208H37.329V24.358H51.537V38.566H61.686V24.358H75.9V14.208H61.686V0Z" transform="translate(47.611 0)" fill="#f6f2ea"/>
      <g id="그룹_1176" data-name="그룹 1176" transform="translate(0 0.001)" clip-path="url(#clip-path-2)">
        <path id="패스_45" data-name="패스 45" d="M158.723,106.176c-1.408-.314-2.187-.783-2.187-1.251,0-.78,1.561-1.406,3.124-1.718,4.844-1.251,15.937-6.405,15.937-19.53,0-9.22-4.064-15.78-10.783-19.844-6.872-4.062-16.872-5.78-31.872-5.78-15.625,0-27.03.626-38.9,1.406-2.344.157-2.032,4.842-.628,5.625l4.221.626c6.562.937,6.874,2.5,6.874,18.279V101.4L96.144,85.067,52.806.018,9.468,85.067,0,103.555H20.709l9.466-18.488L52.806,40.694,75.435,85.067,84.9,103.555h19.605v35.588c0,14.062-.937,15.154-7.969,16.561l-4.53.94c-1.251.469-1.251,4.53,0,5.468,8.9-.314,16.563-.469,24.218-.469,4.53,0,10.467.623,16.092.623,9.532,0,21.25-.469,31.092-3.907s18.438-11.873,18.281-26.247c-.155-15.157-10.624-23.28-22.966-25.936M126.069,73.365c0-6.876.155-8.123,7.5-8.123,10.779,0,19.216,6.717,19.216,20.311,0,9.373-5,17.967-18.436,17.967-8.126,0-8.28-.312-8.28-4.373Zm13.748,81.716c-12.185,0-13.748-7.657-13.748-19.844V116.8c0-6.248,0-6.408,8.592-6.408,15,0,22.814,9.532,22.814,23.123,0,12.658-6.1,21.564-17.657,21.564" transform="translate(0 0.023)" fill="#f6f2ea"/>
      </g>
    </g>
  </g>
</svg>
