<svg xmlns="http://www.w3.org/2000/svg" xmlns:xlink="http://www.w3.org/1999/xlink" width="116" height="22.106" viewBox="0 0 116 22.106">
  <defs>
    <clipPath id="clip-path">
      <rect id="사각형_56" data-name="사각형 56" width="116" height="22.106" fill="#fff"/>
    </clipPath>
  </defs>
  <g id="logo" transform="translate(0 0)">
    <path id="패스_18" data-name="패스 18" d="M.887,11.964,0,13.7H1.94l.887-1.732,2.12-4.156,2.12,4.156L7.953,13.7H9.892l-.887-1.732L4.946,4Z" transform="translate(0 -2.782)" fill="#fff"/>
    <path id="패스_19" data-name="패스 19" d="M33.532,4l-.887,1.732L28.586,13.7,24.527,5.729,23.64,4h1.939l.887,1.732,2.12,4.156,2.12-4.156L31.593,4Z" transform="translate(-16.449 -2.782)" fill="#fff"/>
    <path id="패스_20" data-name="패스 20" d="M57.263,13.7H55.323l-.887-1.732-2.12-4.156L50.2,11.964,49.31,13.7H47.371l.887-1.732L52.317,4l4.059,7.967Z" transform="translate(-32.961 -2.782)" fill="#fff"/>
    <path id="패스_21" data-name="패스 21" d="M92.323,4.012v9.7l-1.732-1.33L84.356,7.572V13.71H82.624V4.039l1.732,1.33,6.235,4.807V4Z" transform="translate(-58.83 -2.782)" fill="#fff"/>
    <path id="패스_22" data-name="패스 22" d="M127.9,4.043V5.775h-3.976v7.967h-1.732V5.775h-3.976V4.043Z" transform="translate(-84.173 -2.813)" fill="#fff"/>
    <path id="패스_23" data-name="패스 23" d="M149.887,15.3v1.23h-1.722v1.722h-1.23V16.531h-1.722V15.3h1.722V13.579h1.23V15.3Z" transform="translate(-103.294 -9.702)" fill="#fff"/>
    <g id="그룹_20" data-name="그룹 20" transform="translate(0 0)">
      <g id="그룹_19" data-name="그룹 19" clip-path="url(#clip-path)">
        <path id="패스_24" data-name="패스 24" d="M171.83,7.913c0-2.311-.046-2.54-1.007-2.678l-.618-.091c-.206-.114-.252-.8.091-.824,1.739-.114,3.41-.206,5.7-.206a9.3,9.3,0,0,1,4.668.846,3.2,3.2,0,0,1,1.579,2.906,2.992,2.992,0,0,1-2.334,2.861c-.229.046-.458.137-.458.252,0,.069.114.137.32.183a3.842,3.842,0,0,1,3.364,3.8,3.836,3.836,0,0,1-2.677,3.844,14.311,14.311,0,0,1-4.554.572c-.824,0-1.693-.092-2.357-.092-1.122,0-2.243.023-3.547.069-.183-.137-.183-.732,0-.8l.664-.137c1.03-.206,1.167-.366,1.167-2.426Zm3.158,2.22c0,.6.023.641,1.213.641a2.442,2.442,0,0,0,2.7-2.632,2.688,2.688,0,0,0-2.815-2.975c-1.075,0-1.1.183-1.1,1.19Zm0,5.286c0,1.785.229,2.906,2.014,2.906,1.693,0,2.586-1.3,2.586-3.158a3.1,3.1,0,0,0-3.341-3.387c-1.259,0-1.259.023-1.259.938Z" transform="translate(-120.726 -2.924)" fill="#fff"/>
        <path id="패스_25" data-name="패스 25" d="M227.693,30.151c-.092,1.556.572,1.968,1.03,1.968a1.648,1.648,0,0,0,.87-.275.43.43,0,0,1,.275.526,3.736,3.736,0,0,1-2.655,1.236,2.7,2.7,0,0,1-1.922-.8.548.548,0,0,0-.366-.183c-.115,0-.252.091-.48.251a3.379,3.379,0,0,1-1.945.732,2.37,2.37,0,0,1-2.563-2.4c0-1.167.71-1.876,2.38-2.38.87-.275,1.51-.458,2.151-.641.412-.114.527-.275.549-.458.023-.252.046-.5.046-.778,0-.87-.343-1.968-1.327-1.968-.549,0-1.03.32-1.19,1.3a1,1,0,0,1-.389.732,3.872,3.872,0,0,1-1.648.526c-.389,0-.526-.252-.526-.572a2.705,2.705,0,0,1,1.1-1.762,6.5,6.5,0,0,1,3.844-1.4c1.922,0,3.044.961,2.929,3.318Zm-2.746-.6c.023-.366,0-.435-.16-.412-1.03.137-1.922.526-1.922,1.6a1.3,1.3,0,0,0,1.167,1.373c.709,0,.847-.412.87-1.121Z" transform="translate(-156.314 -16.924)" fill="#fff"/>
        <path id="패스_26" data-name="패스 26" d="M256.811,3.638c0-.915,0-1.167-.458-1.441l-.389-.229a.55.55,0,0,1,0-.686A25.785,25.785,0,0,0,259.465,0a.5.5,0,0,1,.389.16c-.046.938-.069,1.9-.069,3.341v7.186c0,.252.069.32.32.32a1.681,1.681,0,0,0,1.327-.641l.961-1.121c.435-.526.549-.778.549-.916,0-.114-.229-.206-.435-.229l-.572-.092c-.206-.206-.183-.71.046-.8h.549a33.814,33.814,0,0,0,4.325-.32c.229.114.252.618.092.8l-.732.16a3.805,3.805,0,0,0-1.533.8,12.906,12.906,0,0,0-1.533,1.327.461.461,0,0,0-.137.3.9.9,0,0,0,.16.389,37.721,37.721,0,0,0,3,4.371,2.617,2.617,0,0,0,1.35.526l.343.069c.183.16.137.709-.091.8-.709-.046-1.556-.069-2.883-.069-1.35,0-2.174.023-2.815.069a.6.6,0,0,1-.092-.8l.3-.069c.229-.046.366-.092.366-.183a2.894,2.894,0,0,0-.389-.732l-1.625-2.472a.635.635,0,0,0-.572-.343c-.16,0-.275.115-.275.549v1.327c0,1.6.092,1.785.892,1.876l.366.046a.623.623,0,0,1-.023.8c-.732-.046-1.693-.069-2.746-.069s-1.991.023-2.792.069a.623.623,0,0,1-.023-.8l.435-.046c.824-.092.915-.275.915-1.876Z" transform="translate(-181.468 0)" fill="#fff"/>
        <path id="패스_27" data-name="패스 27" d="M301.448,27.861c-.526,0-.572.046-.572.412A3.186,3.186,0,0,0,304.1,31.66a2.264,2.264,0,0,0,2.128-1.19.517.517,0,0,1,.6.526,4.387,4.387,0,0,1-4,2.609,4.489,4.489,0,0,1-4.76-4.668A4.924,4.924,0,0,1,303,23.811c2.38,0,3.661,1.533,3.661,3.3,0,.435-.115.755-.824.755Zm1.51-1.007a1.827,1.827,0,0,0,.938-.206c.115-.069.16-.3.16-.526a1.143,1.143,0,0,0-1.213-1.259,1.871,1.871,0,0,0-1.785,1.648c0,.32.32.343,1.053.343Z" transform="translate(-211.841 -16.923)" fill="#fff"/>
        <path id="패스_28" data-name="패스 28" d="M331.919,26.434c0-.915,0-1.19-.435-1.465l-.32-.206a.55.55,0,0,1,0-.686A15.607,15.607,0,0,0,334.5,22.7a.463.463,0,0,1,.412.206c-.046.458-.092.778-.092.984,0,.16.046.229.229.275.618-.389,1.281-1.144,2.243-1.144a1.277,1.277,0,0,1,1.258,1.35,1.383,1.383,0,0,1-1.465,1.487,1.285,1.285,0,0,1-.892-.412c-.526-.435-.732-.458-.87-.458-.32,0-.435.5-.435,1.373v3.478c0,1.6.092,1.785.847,1.854l.732.069a.624.624,0,0,1-.023.8c-1.1-.046-2.014-.069-3.089-.069-.938,0-1.945.023-2.7.069a.623.623,0,0,1-.023-.8l.435-.046c.755-.069.847-.275.847-1.876Z" transform="translate(-234.898 -16.136)" fill="#fff"/>
        <path id="패스_29" data-name="패스 29" d="M360.77,25.482c-.16-.16-.16-.709.069-.8.824.046,1.808.069,3.021.069.847,0,1.716-.023,2.563-.069.229.092.252.641.069.8l-.458.091c-.641.137-.687.229-.687.435a10.745,10.745,0,0,0,.687,2.037c.252.641.755,2.036,1.03,2.609.252-.48.48-1.007.709-1.51l.412-.938a11.579,11.579,0,0,0,.847-2.311c0-.16-.229-.275-.5-.321l-.458-.091c-.206-.16-.183-.732.069-.8.5.046,1.19.069,2.22.069q.893,0,1.785-.069c.229.092.252.664.046.8l-.435.046a1.49,1.49,0,0,0-1.053.5,17.822,17.822,0,0,0-1.35,2.4l-1.213,2.494-3.478,7.208a2.184,2.184,0,0,1-1.968,1.51c-1.235.023-1.465-.755-1.465-1.373a1.187,1.187,0,0,1,1.3-1.19h.549a1.3,1.3,0,0,0,1.121-.48,8.01,8.01,0,0,0,.664-1.259,2.645,2.645,0,0,0,.321-.961,4.7,4.7,0,0,0-.435-1.671l-2.2-5.538c-.435-1.1-.641-1.51-1.373-1.625Z" transform="translate(-256.33 -17.541)" fill="#fff"/>
      </g>
    </g>
  </g>
</svg>
