<svg xmlns="http://www.w3.org/2000/svg" xmlns:xlink="http://www.w3.org/1999/xlink" width="202.595" height="38.608" viewBox="0 0 202.595 38.608">
  <defs>
    <clipPath id="clip-path">
      <rect id="사각형_56" data-name="사각형 56" width="202.595" height="38.608" fill="#fff"/>
    </clipPath>
  </defs>
  <g id="logo" transform="translate(0 0)">
    <path id="패스_18" data-name="패스 18" d="M1.473,17.229,0,20.1H3.221l1.473-2.876,3.521-6.9,3.521,6.9L13.208,20.1H16.43l-1.473-2.876L8.215,4Z" transform="translate(0 -1.978)" fill="#fff"/>
    <path id="패스_19" data-name="패스 19" d="M40.069,4,38.6,6.874,31.855,20.105,25.113,6.874,23.64,4h3.221l1.473,2.876,3.521,6.9,3.521-6.9L36.848,4Z" transform="translate(-11.697 -1.978)" fill="#fff"/>
    <path id="패스_20" data-name="패스 20" d="M63.8,20.1H60.579l-1.473-2.876-3.521-6.9-3.521,6.9L50.592,20.1H47.371l1.473-2.876L55.586,4l6.742,13.232Z" transform="translate(-23.438 -1.978)" fill="#fff"/>
    <path id="패스_21" data-name="패스 21" d="M98.732,4.021V20.128l-2.876-2.209L85.5,9.934V20.128H82.624V4.067L85.5,6.276,95.856,14.26V4Z" transform="translate(-40.881 -1.978)" fill="#fff"/>
    <path id="패스_22" data-name="패스 22" d="M134.3,4.043V6.919h-6.6V20.151h-2.876V6.919h-6.6V4.043Z" transform="translate(-58.493 -2.001)" fill="#fff"/>
    <path id="패스_23" data-name="패스 23" d="M152.976,16.439v2.043h-2.859v2.86h-2.043v-2.86h-2.86V16.439h2.86v-2.86h2.043v2.86Z" transform="translate(-71.85 -6.719)" fill="#fff"/>
    <g id="그룹_20" data-name="그룹 20" transform="translate(0 0)">
      <g id="그룹_19" data-name="그룹 19" clip-path="url(#clip-path)">
        <path id="패스_24" data-name="패스 24" d="M173.3,10.748c0-4.037-.08-4.437-1.759-4.677l-1.079-.16c-.36-.2-.44-1.4.16-1.439,3.037-.2,5.955-.359,9.952-.359,3.837,0,6.394.439,8.153,1.478a5.592,5.592,0,0,1,2.758,5.076,5.225,5.225,0,0,1-4.077,5c-.4.08-.8.24-.8.44,0,.12.2.239.559.32,3.157.679,5.835,2.758,5.875,6.634a6.7,6.7,0,0,1-4.676,6.714,24.993,24.993,0,0,1-7.953,1c-1.439,0-2.957-.16-4.116-.16-1.959,0-3.917.04-6.2.12-.319-.24-.319-1.279,0-1.4l1.159-.24c1.8-.36,2.039-.639,2.039-4.236Zm5.515,3.876c0,1.039.04,1.119,2.118,1.119,3.437,0,4.716-2.2,4.716-4.6,0-3.477-2.158-5.2-4.916-5.2-1.878,0-1.919.32-1.919,2.078Zm0,9.232c0,3.117.4,5.076,3.517,5.076,2.958,0,4.516-2.278,4.516-5.515,0-3.477-2-5.915-5.835-5.915-2.2,0-2.2.04-2.2,1.638Z" transform="translate(-84.046 -2.035)" fill="#fff"/>
        <path id="패스_25" data-name="패스 25" d="M233.484,34.883c-.16,2.718,1,3.437,1.8,3.437a2.878,2.878,0,0,0,1.519-.48.751.751,0,0,1,.48.919,6.524,6.524,0,0,1-4.636,2.158,4.719,4.719,0,0,1-3.357-1.4.956.956,0,0,0-.64-.319c-.2,0-.44.159-.839.439a5.9,5.9,0,0,1-3.4,1.279c-2.318,0-4.477-1.4-4.477-4.2,0-2.039,1.239-3.277,4.157-4.156,1.519-.48,2.638-.8,3.757-1.12.719-.2.919-.479.959-.8.04-.44.08-.879.08-1.359,0-1.519-.6-3.436-2.318-3.436-.959,0-1.8.559-2.078,2.278a1.743,1.743,0,0,1-.68,1.279,6.763,6.763,0,0,1-2.878.919c-.68,0-.919-.44-.919-1a4.724,4.724,0,0,1,1.919-3.077,11.358,11.358,0,0,1,6.714-2.438c3.357,0,5.316,1.678,5.116,5.795Zm-4.8-1.039c.04-.64,0-.759-.28-.719-1.8.24-3.357.919-3.357,2.8a2.274,2.274,0,0,0,2.039,2.4c1.239,0,1.479-.719,1.519-1.958Z" transform="translate(-108.821 -11.782)" fill="#fff"/>
        <path id="패스_26" data-name="패스 26" d="M257.919,6.355c0-1.6,0-2.039-.8-2.517l-.68-.4a.961.961,0,0,1,0-1.2A45.03,45.03,0,0,0,262.555,0a.877.877,0,0,1,.68.28c-.08,1.638-.12,3.317-.12,5.835v12.55c0,.44.12.559.559.559a2.935,2.935,0,0,0,2.318-1.119l1.679-1.958c.759-.919.959-1.359.959-1.6,0-.2-.4-.359-.759-.4l-1-.16c-.36-.36-.319-1.239.08-1.4h.959a59.056,59.056,0,0,0,7.553-.559c.4.2.44,1.079.16,1.4l-1.279.28a6.646,6.646,0,0,0-2.678,1.4,22.541,22.541,0,0,0-2.678,2.318.8.8,0,0,0-.24.519,1.564,1.564,0,0,0,.28.679,65.873,65.873,0,0,0,5.236,7.634,4.571,4.571,0,0,0,2.358.919l.6.12c.32.28.24,1.239-.16,1.4-1.239-.08-2.718-.12-5.036-.12-2.358,0-3.8.04-4.916.12a1.039,1.039,0,0,1-.16-1.4l.52-.12c.4-.08.64-.16.64-.32a5.053,5.053,0,0,0-.68-1.279l-2.838-4.317a1.109,1.109,0,0,0-1-.6c-.279,0-.479.2-.479.959V23.94c0,2.8.16,3.117,1.559,3.277l.64.08a1.088,1.088,0,0,1-.04,1.4c-1.279-.08-2.957-.12-4.8-.12s-3.477.04-4.876.12a1.087,1.087,0,0,1-.04-1.4l.759-.08c1.438-.16,1.6-.479,1.6-3.277Z" transform="translate(-126.332 0)" fill="#fff"/>
        <path id="패스_27" data-name="패스 27" d="M303.976,30.885c-.919,0-1,.08-1,.719,0,3,1.919,5.915,5.636,5.915a3.954,3.954,0,0,0,3.717-2.078.9.9,0,0,1,1.039.919,7.663,7.663,0,0,1-6.995,4.556c-5.4,0-8.313-3.8-8.313-8.153a8.6,8.6,0,0,1,8.633-8.952c4.156,0,6.394,2.678,6.394,5.755,0,.76-.2,1.319-1.439,1.319Zm2.638-1.759a3.191,3.191,0,0,0,1.639-.36c.2-.12.28-.519.28-.919a2,2,0,0,0-2.118-2.2,3.267,3.267,0,0,0-3.118,2.878c0,.559.56.6,1.839.6Z" transform="translate(-147.477 -11.781)" fill="#fff"/>
        <path id="패스_28" data-name="패스 28" d="M332.976,29.219c0-1.6,0-2.078-.759-2.558l-.559-.36a.961.961,0,0,1,0-1.2,27.262,27.262,0,0,0,5.835-2.4.809.809,0,0,1,.719.36c-.08.8-.16,1.359-.16,1.719,0,.28.08.4.4.479,1.079-.679,2.238-2,3.917-2a2.23,2.23,0,0,1,2.2,2.358,2.416,2.416,0,0,1-2.558,2.6,2.245,2.245,0,0,1-1.559-.719c-.919-.759-1.279-.8-1.519-.8-.559,0-.759.879-.759,2.4v6.075c0,2.8.16,3.117,1.479,3.237l1.279.12a1.089,1.089,0,0,1-.039,1.4c-1.918-.08-3.517-.12-5.4-.12-1.638,0-3.4.04-4.716.12a1.088,1.088,0,0,1-.04-1.4l.759-.08c1.319-.12,1.479-.479,1.479-3.277Z" transform="translate(-163.529 -11.233)" fill="#fff"/>
        <path id="패스_29" data-name="패스 29" d="M360.854,26.08c-.28-.28-.28-1.239.12-1.4,1.438.08,3.157.12,5.275.12,1.479,0,3-.04,4.476-.12.4.16.44,1.119.12,1.4l-.8.16c-1.119.24-1.2.4-1.2.759a18.765,18.765,0,0,0,1.2,3.557c.44,1.119,1.319,3.557,1.8,4.556.439-.839.839-1.759,1.239-2.638l.719-1.639a20.221,20.221,0,0,0,1.479-4.036c0-.28-.4-.479-.879-.56l-.8-.16c-.36-.28-.32-1.279.12-1.4.879.08,2.078.12,3.877.12q1.559,0,3.117-.12c.4.16.44,1.159.08,1.4l-.759.08a2.6,2.6,0,0,0-1.838.88,31.126,31.126,0,0,0-2.358,4.2l-2.118,4.356-6.075,12.589c-.84,1.8-1.959,2.6-3.437,2.637-2.158.04-2.558-1.319-2.558-2.4a2.073,2.073,0,0,1,2.278-2.078h.959a2.276,2.276,0,0,0,1.958-.839,13.982,13.982,0,0,0,1.159-2.2,4.62,4.62,0,0,0,.56-1.678,8.205,8.205,0,0,0-.759-2.918l-3.837-9.672c-.759-1.918-1.119-2.638-2.4-2.838Z" transform="translate(-178.449 -12.212)" fill="#fff"/>
      </g>
    </g>
  </g>
</svg>
