<svg xmlns="http://www.w3.org/2000/svg" width="25.863" height="25.864" viewBox="0 0 25.863 25.864">
  <path id="합치기_1" data-name="합치기 1" d="M7.581,25.864A7.592,7.592,0,0,1,0,18.278V7.585A7.589,7.589,0,0,1,7.581,0h10.7a7.592,7.592,0,0,1,7.585,7.585V18.278a7.6,7.6,0,0,1-7.585,7.585ZM1.7,7.585V18.278a5.89,5.89,0,0,0,5.885,5.885h10.7a5.891,5.891,0,0,0,5.886-5.885V7.585A5.894,5.894,0,0,0,18.278,1.7H7.581A5.894,5.894,0,0,0,1.7,7.585Zm4.948,5.347a6.286,6.286,0,1,1,6.287,6.284A6.292,6.292,0,0,1,6.645,12.932Zm1.7,0a4.586,4.586,0,1,0,4.588-4.588A4.594,4.594,0,0,0,8.344,12.932Zm9.426-6.9A2.028,2.028,0,1,1,19.8,8.06,2.029,2.029,0,0,1,17.77,6.033Zm1.7,0A.328.328,0,1,0,19.8,5.7.33.33,0,0,0,19.47,6.033Z" fill="#fff"/>
</svg>
