<svg id="cart_icon" xmlns="http://www.w3.org/2000/svg" xmlns:xlink="http://www.w3.org/1999/xlink" width="22.006" height="22" viewBox="0 0 22.006 22">
  <defs>
    <clipPath id="clip-path">
      <rect id="사각형_32" data-name="사각형 32" width="22.006" height="22" fill="#fff"/>
    </clipPath>
  </defs>
  <g id="그룹_18" data-name="그룹 18" clip-path="url(#clip-path)">
    <path id="패스_17" data-name="패스 17" d="M21.068,6.434A3.7,3.7,0,0,0,18.39,5.2H15.862V4.855a4.855,4.855,0,1,0-9.711,0V12.2a.859.859,0,0,0,1.719,0V4.855a3.137,3.137,0,1,1,6.273,0V5.2h-3.7a.859.859,0,1,0,0,1.719h7.863a1.977,1.977,0,0,1,1.964,2.2l-.925,8.115a3.436,3.436,0,0,1-3.415,3.048H6.072a3.436,3.436,0,0,1-3.415-3.048L1.732,9.118A1.977,1.977,0,0,1,3.7,6.918.859.859,0,1,0,3.7,5.2,3.7,3.7,0,0,0,.024,9.313l.925,8.115A5.154,5.154,0,0,0,6.072,22h9.863a5.154,5.154,0,0,0,5.123-4.572l.925-8.115a3.7,3.7,0,0,0-.915-2.879" transform="translate(0)" fill="#fff"/>
  </g>
</svg>
