<svg id="login_icon" xmlns="http://www.w3.org/2000/svg" width="21.965" height="22" viewBox="0 0 21.965 22">
  <path id="패스_15" data-name="패스 15" d="M126.607,11.592a5.8,5.8,0,1,1,5.8-5.8,5.8,5.8,0,0,1-5.8,5.8m0-9.874A4.079,4.079,0,1,0,130.685,5.8a4.083,4.083,0,0,0-4.079-4.079" transform="translate(-115.624)" fill="#fff"/>
  <path id="패스_16" data-name="패스 16" d="M.863,318.691a.857.857,0,0,0,.823-.61c1.089-3.659,4.844-6.364,9.3-6.364s8.208,2.705,9.3,6.364a.861.861,0,0,0,1.65-.489,10.03,10.03,0,0,0-2.967-4.616A11.89,11.89,0,0,0,10.983,310,11.89,11.89,0,0,0,3,312.976a10.03,10.03,0,0,0-2.967,4.616A.859.859,0,0,0,.863,318.691Z" transform="translate(0 -296.691)" fill="#fff"/>
</svg>
