<svg xmlns="http://www.w3.org/2000/svg" width="25.863" height="25.864" viewBox="0 0 25.863 25.864">
  <path id="합치기_1" data-name="합치기 1" d="M15101.583-1150.135a7.592,7.592,0,0,1-7.581-7.585v-10.693a7.589,7.589,0,0,1,7.581-7.585h10.7a7.592,7.592,0,0,1,7.585,7.585v10.693a7.6,7.6,0,0,1-7.585,7.585Zm-5.885-18.279v10.693a5.89,5.89,0,0,0,5.885,5.885h10.7a5.891,5.891,0,0,0,5.886-5.885v-10.693a5.894,5.894,0,0,0-5.886-5.889h-10.7A5.894,5.894,0,0,0,15095.7-1168.414Zm4.948,5.347a6.292,6.292,0,0,1,6.287-6.284,6.292,6.292,0,0,1,6.284,6.284,6.292,6.292,0,0,1-6.284,6.284A6.292,6.292,0,0,1,15100.646-1163.068Zm1.7,0a4.594,4.594,0,0,0,4.588,4.588,4.593,4.593,0,0,0,4.584-4.588,4.59,4.59,0,0,0-4.584-4.588A4.591,4.591,0,0,0,15102.346-1163.068Zm9.426-6.9a2.029,2.029,0,0,1,2.026-2.026,2.029,2.029,0,0,1,2.03,2.026,2.029,2.029,0,0,1-2.03,2.026A2.029,2.029,0,0,1,15111.771-1169.966Zm1.7,0a.33.33,0,0,0,.326.33.33.33,0,0,0,.33-.33.33.33,0,0,0-.33-.33A.33.33,0,0,0,15113.472-1169.966Z" transform="translate(-15094.002 1175.999)" fill="#fff"/>
</svg>
