<svg id="logo" xmlns="http://www.w3.org/2000/svg" xmlns:xlink="http://www.w3.org/1999/xlink" width="164.773" height="29.72" viewBox="0 0 164.773 29.72">
  <defs>
    <clipPath id="clip-path">
      <rect id="사각형_270" data-name="사각형 270" width="164.773" height="29.72" fill="#fff"/>
    </clipPath>
  </defs>
  <g id="그룹_73" data-name="그룹 73" clip-path="url(#clip-path)">
    <path id="패스_52" data-name="패스 52" d="M4.294,4.294A14.877,14.877,0,0,0,0,13.281L13.281,0A14.877,14.877,0,0,0,4.294,4.294" fill="#fff"/>
    <path id="패스_53" data-name="패스 53" d="M17.845.27.27,17.845a15.123,15.123,0,0,0,1.173,3.527L21.365,1.451A15.108,15.108,0,0,0,17.845.27" transform="translate(-0.071 -0.071)" fill="#fff"/>
    <path id="패스_54" data-name="패스 54" d="M31.342,11.41,11.42,31.332A15.112,15.112,0,0,0,14.939,32.5L32.507,14.937a14.755,14.755,0,0,0-1.173-3.527" transform="translate(-2.994 -2.991)" fill="#fff"/>
    <path id="패스_55" data-name="패스 55" d="M22.28,35.561A14.948,14.948,0,0,0,35.561,22.28Z" transform="translate(-5.841 -5.841)" fill="#fff"/>
    <path id="패스_56" data-name="패스 56" d="M19.782,15H17.436L11.46,20.954,4.31,28.119a15.984,15.984,0,0,0,1.114,1.24,14.686,14.686,0,0,0,1.24,1.136l7.164-7.164,5.954-5.962Z" transform="translate(-1.13 -3.932)" fill="#fff"/>
    <path id="패스_57" data-name="패스 57" d="M87.494,9.507h-.273a1.261,1.261,0,0,0-.465.059,19.027,19.027,0,0,0-4.8,1.52V9.943h-4.8V25.954h4.811V15.034l.155-.052a21.318,21.318,0,0,1,5.5-1.055h.546L88.645,9.5H87.494" transform="translate(-20.226 -2.491)" fill="#fff"/>
    <path id="패스_58" data-name="패스 58" d="M102.139,9.48c-6.006,0-8.249,2.309-8.249,8.478s2.214,8.411,8.249,8.411,8.219-2.273,8.219-8.411-2.214-8.478-8.219-8.478m0,13.281c-2.531,0-3.217-.981-3.217-4.811s.686-4.87,3.217-4.87,3.18.974,3.18,4.87-.738,4.811-3.18,4.811" transform="translate(-24.615 -2.485)" fill="#fff"/>
    <path id="패스_59" data-name="패스 59" d="M140.151,9.48a8.268,8.268,0,0,0-5.844,2.6c-.59-1.727-1.985-2.6-4.132-2.6a8.368,8.368,0,0,0-5.482,2.265V9.937H119.92V25.948h4.774V14.94c1.749-1.07,2.5-1.395,3.534-1.395,1.2,0,1.727.45,1.727,1.881V25.948h4.611V14.969c1.756-1.07,2.494-1.424,3.571-1.424,1.3,0,1.69.516,1.69,1.881V25.948H144.6V13.937c0-2.892-1.564-4.427-4.427-4.427" transform="translate(-31.439 -2.485)" fill="#fff"/>
    <path id="패스_60" data-name="패스 60" d="M57.726,19.554h4.737c3.468,0,4.87-1.564,4.87-4.486-.037-3.689-2.147-5.578-7.6-5.578-5.814,0-8.153,2.14-8.153,8.47,0,5.9,2.273,8.382,8.345,8.382a17.575,17.575,0,0,0,6.98-1.2l-.45-2.988c-2.177.229-4.516.354-5.976.354-2.214,0-3.261-.428-3.689-2.3,0-.2,0-.649.93-.649m2.169-6.559c2.073,0,2.723.516,2.723,2.014,0,.908-.192,1.653-1.476,1.653H58.361c-1.734-.074-1.645-1.306-1.616-1.542.347-1.719,1.225-2.154,3.151-2.125" transform="translate(-13.522 -2.488)" fill="#fff"/>
    <path id="패스_61" data-name="패스 61" d="M189.424,19.554h4.722c3.475,0,4.87-1.564,4.87-4.486,0-3.689-2.14-5.578-7.6-5.578-5.807,0-8.116,2.14-8.116,8.47,0,5.9,2.273,8.382,8.345,8.382a17.575,17.575,0,0,0,6.98-1.2l-.457-2.988c-2.169.229-4.508.354-5.976.354-2.213,0-3.254-.428-3.689-2.3,0-.2,0-.649.93-.649m2.169-6.559c2.073,0,2.723.516,2.723,2.014,0,.908-.192,1.653-1.476,1.653h-2.767c-1.734-.074-1.653-1.306-1.616-1.542.347-1.719,1.225-2.154,3.151-2.125" transform="translate(-48.055 -2.488)" fill="#fff"/>
    <path id="패스_62" data-name="패스 62" d="M168.934,9.48a10.6,10.6,0,0,0-6.331,2.427V9.915H157.83V25.948h4.8V15.006a9.912,9.912,0,0,1,4.479-1.476c1.173,0,1.557.421,1.557,1.881V25.948h4.781V13.937c0-2.892-1.557-4.427-4.479-4.427" transform="translate(-41.377 -2.485)" fill="#fff"/>
    <path id="패스_63" data-name="패스 63" d="M219.041,11.718V8.5h-4.427V4h-4.774V8.5H207v3.217h2.826v8.574c0,2.87,1.638,4.552,4.427,4.6a18.068,18.068,0,0,0,4.722-.288l-.059-.362L218.4,20.9h-2.044c-1.306,0-1.756-.421-1.756-1.623V11.718Z" transform="translate(-54.268 -1.049)" fill="#fff"/>
  </g>
</svg>
